<svg width="14" height="14" viewBox="0 0 14 14" fill="none" xmlns="http://www.w3.org/2000/svg">
<path fill-rule="evenodd" clip-rule="evenodd" d="M9.94542 3.31334H10.082C11.8766 3.31334 13.3332 4.81334 13.3332 6.65334V10.3333C13.3332 12.1733 11.8766 13.6667 10.082 13.6667H3.9177C2.12304 13.6667 0.666504 12.1733 0.666504 10.3333V6.65334C0.666504 4.81334 2.12304 3.31334 3.9177 3.31334H4.05425C4.06726 2.51334 4.37287 1.76668 4.92557 1.20668C5.48478 0.64001 6.20004 0.353344 7.00634 0.333344C8.61893 0.333344 9.92591 1.66668 9.94542 3.31334ZM5.6084 1.92001C5.24427 2.29334 5.04269 2.78668 5.02969 3.31334H8.97014C8.95063 2.22001 8.07931 1.33334 7.00642 1.33334C6.50573 1.33334 5.98554 1.54001 5.6084 1.92001ZM9.47083 5.88001C9.74393 5.88001 9.95851 5.65334 9.95851 5.38001V4.60668C9.95851 4.33334 9.74393 4.10668 9.47083 4.10668C9.20423 4.10668 8.98315 4.33334 8.98315 4.60668V5.38001C8.98315 5.65334 9.20423 5.88001 9.47083 5.88001ZM4.95816 5.38001C4.95816 5.65334 4.74358 5.88001 4.47048 5.88001C4.20388 5.88001 3.9828 5.65334 3.9828 5.38001V4.60668C3.9828 4.33334 4.20388 4.10668 4.47048 4.10668C4.74358 4.10668 4.95816 4.33334 4.95816 4.60668V5.38001Z" fill="#9593A0"/>
</svg>
