<svg width="12" height="14" viewBox="0 0 12 14" fill="none" xmlns="http://www.w3.org/2000/svg">
<path fill-rule="evenodd" clip-rule="evenodd" d="M0.333252 5.87852C0.333252 2.81194 2.89584 0.333344 5.99555 0.333344C9.104 0.333344 11.6666 2.81194 11.6666 5.87852C11.6666 7.4238 11.1046 8.85843 10.1796 10.0744C9.15912 11.4157 7.90136 12.5843 6.48561 13.5016C6.16159 13.7136 5.86917 13.7296 5.51355 13.5016C4.08974 12.5843 2.83198 11.4157 1.82025 10.0744C0.894574 8.85843 0.333252 7.4238 0.333252 5.87852ZM4.12937 6.05118C4.12937 7.07848 4.96766 7.88646 5.99551 7.88646C7.02404 7.88646 7.8704 7.07848 7.8704 6.05118C7.8704 5.03188 7.02404 4.18457 5.99551 4.18457C4.96766 4.18457 4.12937 5.03188 4.12937 6.05118Z" fill="#2C2D5B"/>
</svg>
