<svg width="20" height="14" viewBox="0 0 20 14" fill="none" xmlns="http://www.w3.org/2000/svg">
<path d="M2.7061 8.19839L2.1061 6.99839H6.3061L5.8261 5.79839H1.9061L1.3061 4.59839H7.5461L7.0661 3.39839H1.1941L0.506104 2.19839H3.5061C3.5061 1.77404 3.67467 1.36708 3.97473 1.06702C4.27479 0.76696 4.68176 0.598389 5.1061 0.598389H14.7061V3.79839H17.1061L19.5061 6.99839V10.9984H17.9061C17.9061 11.6349 17.6532 12.2454 17.2032 12.6954C16.7531 13.1455 16.1426 13.3984 15.5061 13.3984C14.8696 13.3984 14.2591 13.1455 13.809 12.6954C13.359 12.2454 13.1061 11.6349 13.1061 10.9984H9.9061C9.9061 11.6349 9.65325 12.2454 9.20316 12.6954C8.75307 13.1455 8.14262 13.3984 7.5061 13.3984C6.86958 13.3984 6.25913 13.1455 5.80905 12.6954C5.35896 12.2454 5.1061 11.6349 5.1061 10.9984H3.5061V8.19839H2.7061ZM15.5061 12.1984C15.8244 12.1984 16.1296 12.072 16.3546 11.8469C16.5797 11.6219 16.7061 11.3166 16.7061 10.9984C16.7061 10.6801 16.5797 10.3749 16.3546 10.1499C16.1296 9.92482 15.8244 9.79839 15.5061 9.79839C15.1878 9.79839 14.8826 9.92482 14.6576 10.1499C14.4325 10.3749 14.3061 10.6801 14.3061 10.9984C14.3061 11.3166 14.4325 11.6219 14.6576 11.8469C14.8826 12.072 15.1878 12.1984 15.5061 12.1984ZM16.7061 4.99839H14.7061V6.99839H18.2741L16.7061 4.99839ZM7.5061 12.1984C7.82436 12.1984 8.12959 12.072 8.35463 11.8469C8.57968 11.6219 8.7061 11.3166 8.7061 10.9984C8.7061 10.6801 8.57968 10.3749 8.35463 10.1499C8.12959 9.92482 7.82436 9.79839 7.5061 9.79839C7.18784 9.79839 6.88262 9.92482 6.65758 10.1499C6.43253 10.3749 6.3061 10.6801 6.3061 10.9984C6.3061 11.3166 6.43253 11.6219 6.65758 11.8469C6.88262 12.072 7.18784 12.1984 7.5061 12.1984Z" fill="white"/>
</svg>
