<svg width="26" height="28" viewBox="0 0 26 28" fill="none" xmlns="http://www.w3.org/2000/svg">
<path fill-rule="evenodd" clip-rule="evenodd" d="M18.8913 6.62666H19.1644C22.7538 6.62666 25.6668 9.62666 25.6668 13.3067V20.6667C25.6668 24.3467 22.7538 27.3333 19.1644 27.3333H6.83589C3.24657 27.3333 0.333496 24.3467 0.333496 20.6667V13.3067C0.333496 9.62666 3.24657 6.62666 6.83589 6.62666H7.10899C7.135 5.02666 7.74623 3.53332 8.85163 2.41332C9.97005 1.27999 11.4006 0.706656 13.0132 0.666656C16.2384 0.666656 18.8523 3.33332 18.8913 6.62666ZM10.2171 3.83999C9.48879 4.58666 9.08565 5.57332 9.05964 6.62666H16.9405C16.9015 4.43999 15.1589 2.66666 13.0131 2.66666C12.0117 2.66666 10.9713 3.07999 10.2171 3.83999ZM17.9419 11.76C18.4881 11.76 18.9173 11.3067 18.9173 10.76V9.21332C18.9173 8.66666 18.4881 8.21332 17.9419 8.21332C17.4087 8.21332 16.9665 8.66666 16.9665 9.21332V10.76C16.9665 11.3067 17.4087 11.76 17.9419 11.76ZM8.91659 10.76C8.91659 11.3067 8.48743 11.76 7.94123 11.76C7.40803 11.76 6.96587 11.3067 6.96587 10.76V9.21332C6.96587 8.66666 7.40803 8.21332 7.94123 8.21332C8.48743 8.21332 8.91659 8.66666 8.91659 9.21332V10.76Z" fill="#2C2D5B"/>
</svg>
