<svg width="57" height="40" viewBox="0 0 57 40" fill="none" xmlns="http://www.w3.org/2000/svg">
<path d="M0.875 8.75H25.25L27.125 12.5H2.75L0.875 8.75ZM3.375 16.25H27.75L29.625 20H5.25L3.375 16.25ZM44 36.25C46.075 36.25 47.75 34.575 47.75 32.5C47.75 30.425 46.075 28.75 44 28.75C41.925 28.75 40.25 30.425 40.25 32.5C40.25 34.575 41.925 36.25 44 36.25ZM47.75 13.75H41.5V20H52.65L47.75 13.75ZM19 36.25C21.075 36.25 22.75 34.575 22.75 32.5C22.75 30.425 21.075 28.75 19 28.75C16.925 28.75 15.25 30.425 15.25 32.5C15.25 34.575 16.925 36.25 19 36.25ZM49 10L56.5 20V32.5H51.5C51.5 36.65 48.15 40 44 40C39.85 40 36.5 36.65 36.5 32.5H26.5C26.5 36.65 23.125 40 19 40C14.85 40 11.5 36.65 11.5 32.5H6.5V23.75H11.5V27.5H13.4C14.775 25.975 16.775 25 19 25C21.225 25 23.225 25.975 24.6 27.5H36.5V5H6.5C6.5 2.225 8.725 0 11.5 0H41.5V10H49Z" fill="#F67366"/>
</svg>
