<svg width="603" height="204" viewBox="0 0 603 204" fill="none" xmlns="http://www.w3.org/2000/svg">
<path d="M0 204L0.856916 198.29L5.37308 201.887L0 204ZM272 156L271.755 156.436L272 156ZM600 0L602.656 5.12607L596.889 4.86359L600 0ZM2.41702 200.163C2.52496 200.031 2.63341 199.9 2.74237 199.768L3.5131 200.405C3.40483 200.536 3.29708 200.667 3.18983 200.797L2.41702 200.163ZM9.38646 192.208C11.603 189.826 13.9672 187.413 16.4745 184.987L17.17 185.705C14.675 188.12 12.323 190.521 10.1184 192.889L9.38646 192.208ZM23.8664 178.172C26.3354 176.002 28.9149 173.836 31.6014 171.687L32.2262 172.467C29.5517 174.607 26.9841 176.764 24.5265 178.923L23.8664 178.172ZM39.6195 165.564C42.2873 163.62 45.0438 161.702 47.8867 159.819L48.4388 160.653C45.6086 162.527 42.8643 164.437 40.2084 166.372L39.6195 165.564ZM56.4138 154.444C59.2617 152.737 62.1848 151.071 65.1809 149.455L65.6555 150.336C62.673 151.944 59.7631 153.602 56.9279 155.301L56.4138 154.444ZM74.1701 144.873C77.1685 143.431 80.2318 142.042 83.3581 140.716L83.7487 141.636C80.6372 142.957 77.5881 144.338 74.6035 145.774L74.1701 144.873ZM92.7238 137.003C95.8469 135.851 99.0265 134.764 102.261 133.747L102.561 134.701C99.3421 135.713 96.178 136.795 93.0699 137.941L92.7238 137.003ZM111.949 130.964C115.172 130.125 118.444 129.358 121.765 128.67L121.968 129.649C118.664 130.334 115.408 131.097 112.201 131.932L111.949 130.964ZM131.685 126.878C134.976 126.37 138.31 125.941 141.685 125.597L141.787 126.591C138.428 126.934 135.112 127.361 131.838 127.866L131.685 126.878ZM151.738 124.833C155.06 124.667 158.42 124.584 161.817 124.589L161.815 125.589C158.436 125.584 155.093 125.667 151.788 125.832L151.738 124.833ZM171.896 124.864C175.215 125.039 178.567 125.3 181.949 125.65L181.846 126.645C178.481 126.296 175.146 126.037 171.843 125.862L171.896 124.864ZM191.955 126.939C195.241 127.445 198.553 128.036 201.892 128.717L201.693 129.697C198.369 129.019 195.072 128.431 191.803 127.927L191.955 126.939ZM211.714 130.963C214.922 131.776 218.153 132.672 221.406 133.654L221.117 134.612C217.878 133.633 214.662 132.741 211.468 131.932L211.714 130.963ZM230.974 136.776C234.101 137.871 237.248 139.047 240.412 140.307L240.043 141.236C236.891 139.982 233.758 138.81 230.644 137.719L230.974 136.776ZM249.719 144.232C252.747 145.581 255.792 147.008 258.852 148.513L258.411 149.411C255.362 147.91 252.329 146.49 249.312 145.146L249.719 144.232ZM267.774 153.108C269.261 153.907 270.751 154.726 272.245 155.564L271.755 156.436C270.267 155.601 268.782 154.785 267.3 153.988L267.774 153.108ZM272.245 155.564C273.702 156.381 275.159 157.182 276.615 157.966L276.141 158.847C274.679 158.06 273.218 157.256 271.755 156.436L272.245 155.564ZM285.347 162.472C288.329 163.944 291.308 165.348 294.284 166.684L293.874 167.596C290.887 166.255 287.897 164.846 284.904 163.368L285.347 162.472ZM303.287 170.528C306.374 171.778 309.456 172.956 312.532 174.064L312.193 175.004C309.105 173.892 306.011 172.709 302.912 171.455L303.287 170.528ZM321.848 177.211C324.999 178.207 328.144 179.129 331.279 179.98L331.017 180.945C327.869 180.09 324.711 179.164 321.546 178.165L321.848 177.211ZM340.859 182.365C344.077 183.095 347.285 183.75 350.482 184.333L350.302 185.316C347.092 184.731 343.87 184.073 340.638 183.34L340.859 182.365ZM360.206 185.887C363.485 186.338 366.75 186.713 369.999 187.013L369.907 188.009C366.643 187.707 363.363 187.33 360.07 186.878L360.206 185.887ZM379.802 187.7C383.1 187.857 386.381 187.937 389.643 187.944L389.641 188.944C386.364 188.937 383.068 188.856 379.754 188.699L379.802 187.7ZM399.497 187.74C402.79 187.596 406.061 187.377 409.31 187.085L409.4 188.081C406.136 188.375 402.849 188.594 399.541 188.739L399.497 187.74ZM419.08 185.98C422.351 185.534 425.596 185.013 428.815 184.421L428.995 185.405C425.762 186 422.502 186.523 419.216 186.971L419.08 185.98ZM438.452 182.417C441.657 181.673 444.833 180.858 447.977 179.974L448.247 180.936C445.089 181.825 441.898 182.644 438.678 183.392L438.452 182.417ZM457.393 177.09C460.52 176.053 463.612 174.948 466.668 173.776L467.026 174.71C463.956 175.887 460.849 176.997 457.708 178.039L457.393 177.09ZM475.776 170.044C478.789 168.729 481.764 167.348 484.698 165.904L485.14 166.802C482.192 168.252 479.203 169.639 476.176 170.961L475.776 170.044ZM493.436 161.357C496.321 159.772 499.162 158.125 501.958 156.419L502.478 157.273C499.67 158.986 496.816 160.641 493.918 162.233L493.436 161.357ZM510.243 151.105C512.969 149.268 515.648 147.373 518.276 145.424L518.871 146.228C516.231 148.185 513.541 150.088 510.802 151.934L510.243 151.105ZM526.052 139.381C528.604 137.303 531.103 135.172 533.546 132.991L534.212 133.737C531.758 135.928 529.247 138.068 526.683 140.156L526.052 139.381ZM540.739 126.269C543.09 123.969 545.382 121.621 547.613 119.228L548.344 119.91C546.103 122.314 543.8 124.673 541.438 126.984L540.739 126.269ZM554.156 111.875C556.286 109.365 558.352 106.812 560.352 104.218L561.143 104.828C559.135 107.435 557.059 110 554.918 112.522L554.156 111.875ZM566.174 96.2786C568.055 93.5796 569.866 90.8427 571.604 88.071L572.451 88.6021C570.705 91.3878 568.885 94.1382 566.994 96.8504L566.174 96.2786ZM576.621 79.6095C578.228 76.738 579.758 73.8339 581.209 70.9006L582.105 71.3439C580.647 74.2926 579.109 77.2117 577.493 80.0979L576.621 79.6095ZM585.342 61.9648C586.644 58.9443 587.863 55.8972 588.996 52.8268L589.934 53.1729C588.795 56.2603 587.57 59.324 586.261 62.3607L585.342 61.9648ZM592.146 43.5073C593.112 40.367 593.988 37.2063 594.771 34.0286L595.742 34.268C594.954 37.4642 594.074 40.6431 593.102 43.8013L592.146 43.5073ZM596.848 24.4132C597.448 21.185 597.951 17.9429 598.355 14.6906L599.347 14.814C598.94 18.0863 598.434 21.3481 597.832 24.5957L596.848 24.4132ZM599.27 4.89847C599.279 4.75424 599.288 4.61 599.296 4.46574L600.294 4.52539C600.286 4.67055 600.277 4.8157 600.268 4.96085L599.27 4.89847Z" fill="#F67366"/>
</svg>
