<svg width="30" height="22" viewBox="0 0 30 22" fill="none" xmlns="http://www.w3.org/2000/svg">
<path d="M0 5.00004H13L14 7.00004H1L0 5.00004ZM1.33333 9.00004H14.3333L15.3333 11H2.33333L1.33333 9.00004ZM23 19.6667C24.1067 19.6667 25 18.7734 25 17.6667C25 16.56 24.1067 15.6667 23 15.6667C21.8933 15.6667 21 16.56 21 17.6667C21 18.7734 21.8933 19.6667 23 19.6667ZM25 7.66671H21.6667V11H27.6133L25 7.66671ZM9.66667 19.6667C10.7733 19.6667 11.6667 18.7734 11.6667 17.6667C11.6667 16.56 10.7733 15.6667 9.66667 15.6667C8.56 15.6667 7.66667 16.56 7.66667 17.6667C7.66667 18.7734 8.56 19.6667 9.66667 19.6667ZM25.6667 5.66671L29.6667 11V17.6667H27C27 19.88 25.2133 21.6667 23 21.6667C20.7867 21.6667 19 19.88 19 17.6667H13.6667C13.6667 19.88 11.8667 21.6667 9.66667 21.6667C7.45333 21.6667 5.66667 19.88 5.66667 17.6667H3V13H5.66667V15H6.68C7.41333 14.1867 8.48 13.6667 9.66667 13.6667C10.8533 13.6667 11.92 14.1867 12.6533 15H19V3.00004H3C3 1.52004 4.18667 0.333374 5.66667 0.333374H21.6667V5.66671H25.6667Z" fill="#2C2D5B"/>
</svg>
